<svg class="site-logo" style="width: 150px;" width="142" height="30" viewBox="0 0 142 30" fill="none" xmlns="http://www.w3.org/2000/svg">          <path d="M27.9518 26.6348C27.9518 27.9276 26.9036 28.9758 25.6108 28.9758H0L3.66868 24.3288H25.6108C26.9036 24.2939 27.9518 25.3421 27.9518 26.6348ZM9.81807 16.6071L6.1494 21.2541H16.3867C17.6795 21.2541 18.7277 20.2059 18.7277 18.9131C18.7277 17.6204 17.6795 16.5722 16.3867 16.5722H9.81807V16.6071ZM27.9518 3.33C27.9518 2.03723 26.9036 0.989037 25.6108 0.989037H3.66868L0 5.67097H25.6108C26.9036 5.67097 27.9518 4.62277 27.9518 3.33ZM24.8072 11.0168C24.8072 9.72398 23.759 8.67578 22.4663 8.67578H15.9325L12.2639 13.3577H22.5012C23.794 13.3577 24.8072 12.3095 24.8072 11.0168Z" fill="url(#paint0_linear_378_12588)"></path>          <path d="M98.5072 8.72169C91.8337 8.72169 87.7807 13.5783 87.7807 19.3434C87.7807 25.1084 91.8337 30 98.5072 30C105.251 30 109.269 25.1084 109.269 19.3434C109.269 13.5783 105.216 8.72169 98.5072 8.72169ZM98.5072 25.2482C95.188 25.2482 93.3361 22.5229 93.3361 19.3434C93.3361 16.1988 95.188 13.4735 98.5072 13.4735C101.861 13.4735 103.713 16.1988 103.713 19.3434C103.713 22.5229 101.861 25.2482 98.5072 25.2482ZM79.7446 1.48916H85.0904V29.441H79.7446V1.48916ZM74.0145 1C75.5518 1 76.9145 1.3494 77.8928 1.83855L76.8096 5.78675C76.3904 5.47229 75.7964 5.36747 75.0976 5.36747C73.5952 5.36747 72.5819 6.34578 72.5819 8.30241V9.24578H74.3639C75.6566 9.24578 76.7048 10.294 76.7048 11.5867C76.7048 12.8795 75.6566 13.9277 74.3639 13.9277H72.5819V29.441H67.2361V13.9277H63.8819V9.28072H67.2361V8.33735C67.2012 3.58554 70.1012 1 74.0145 1ZM60.8771 9.28072V29.4759H55.5313V9.28072H60.8771ZM61.0169 3.79518C61.0169 5.33253 59.759 6.59036 58.1867 6.59036C56.6494 6.59036 55.3916 5.33253 55.3916 3.79518C55.3916 2.25783 56.6494 1.03494 58.1867 1.03494C59.759 0.999999 61.0169 2.22289 61.0169 3.79518ZM141.972 9.28072L141.064 12.2855L140.854 12.9843L135.823 29.4759H130.093L125.795 15.6747L121.498 29.4759H115.767L109.618 9.28072H115.069L118.912 22.8373L123.349 9.28072H128.171L132.608 22.8373L136.382 9.28072H141.972ZM43.0928 24.794H52.5265V29.441H36V25.4578L45.1193 13.8578H36V9.21084H52.3518V13.0542L43.0928 24.794Z" fill="#0C294E"></path>          <defs>            <linearGradient id="paint0_linear_378_12588" x1="13.9854" y1="28.9509" x2="13.9854" y2="0.99917" gradientUnits="userSpaceOnUse">              <stop stop-color="#E83C78"></stop>              <stop offset="1" stop-color="#096FF6"></stop>            </linearGradient>          </defs>        </svg>